<svg width="102" height="100" viewBox="0 0 102 100" fill="none" xmlns="http://www.w3.org/2000/svg">
<path d="M82.2705 9.375C82.2705 8.52865 81.9613 7.79622 81.3428 7.17773C80.7243 6.55925 79.9919 6.25 79.1455 6.25H16.6455C15.7992 6.25 15.0667 6.55925 14.4482 7.17773C13.8298 7.79622 13.5205 8.52865 13.5205 9.375V12.5C15.2783 12.5 16.7594 13.1022 17.9639 14.3066C19.1683 15.5111 19.7705 16.9922 19.7705 18.75C19.7705 20.5078 19.1683 21.9889 17.9639 23.1934C16.7594 24.3978 15.2783 25 13.5205 25V31.25C15.2783 31.25 16.7594 31.8522 17.9639 33.0566C19.1683 34.2611 19.7705 35.7422 19.7705 37.5C19.7705 39.2578 19.1683 40.7389 17.9639 41.9434C16.7594 43.1478 15.2783 43.75 13.5205 43.75V50C15.2783 50 16.7594 50.6022 17.9639 51.8066C19.1683 53.0111 19.7705 54.4759 19.7705 56.2012C19.7705 57.9264 19.1683 59.4076 17.9639 60.6445C16.7594 61.8815 15.2783 62.5 13.5205 62.5V68.75C15.2783 68.75 16.7594 69.3522 17.9639 70.5566C19.1683 71.7611 19.7705 73.2259 19.7705 74.9512C19.7705 76.6764 19.1683 78.1575 17.9639 79.3945C16.7594 80.6315 15.2783 81.25 13.5205 81.25V84.375C13.5205 85.2214 13.8298 85.9538 14.4482 86.5723C15.0667 87.1908 15.7992 87.5 16.6455 87.5H57.2705V93.75H13.5205C11.8278 93.75 10.363 93.1315 9.12598 91.8945C7.889 90.6576 7.27051 89.1927 7.27051 87.5V81.25C5.5778 81.25 4.11296 80.6315 2.87598 79.3945C1.639 78.1575 1.02051 76.6764 1.02051 74.9512C1.02051 73.2259 1.639 71.7611 2.87598 70.5566C4.11296 69.3522 5.5778 68.75 7.27051 68.75V62.5C5.5778 62.5 4.11296 61.8815 2.87598 60.6445C1.639 59.4076 1.02051 57.9264 1.02051 56.2012C1.02051 54.4759 1.639 53.0111 2.87598 51.8066C4.11296 50.6022 5.5778 50 7.27051 50V43.75C5.5778 43.75 4.11296 43.1478 2.87598 41.9434C1.639 40.7389 1.02051 39.2578 1.02051 37.5C1.02051 35.7422 1.639 34.2611 2.87598 33.0566C4.11296 31.8522 5.5778 31.25 7.27051 31.25V25C5.5778 25 4.11296 24.3978 2.87598 23.1934C1.639 21.9889 1.02051 20.5078 1.02051 18.75C1.02051 16.9922 1.639 15.5111 2.87598 14.3066C4.11296 13.1022 5.5778 12.5 7.27051 12.5V6.25C7.27051 4.49219 7.889 3.01107 9.12598 1.80664C10.363 0.602214 11.8278 0 13.5205 0H82.2705C83.9632 0 85.428 0.602214 86.665 1.80664C87.902 3.01107 88.5205 4.49219 88.5205 6.25V50H82.2705V9.375Z" fill="#B82887"/>
<path d="M29.1445 81.2502H47.8945C48.7409 81.2502 49.4733 80.941 50.0918 80.3225C50.7103 79.704 51.0195 78.9716 51.0195 78.1252C51.0195 77.2789 50.7103 76.5465 50.0918 75.928C49.4733 75.3095 48.7409 75.0002 47.8945 75.0002H29.1445C28.2982 75.0002 27.5658 75.3095 26.9473 75.928C26.3288 76.5465 26.0195 77.2789 26.0195 78.1252C26.0195 78.9716 26.3288 79.704 26.9473 80.3225C27.5658 80.941 28.2982 81.2502 29.1445 81.2502Z" fill="#F8F0FC"/>
<path d="M47.8945 62.5002H29.1445C28.2982 62.5002 27.5658 62.8095 26.9473 63.428C26.3288 64.0465 26.0195 64.7789 26.0195 65.6252C26.0195 66.4716 26.3288 67.204 26.9473 67.8225C27.5658 68.441 28.2982 68.7502 29.1445 68.7502H47.8945C48.7409 68.7502 49.4733 68.441 50.0918 67.8225C50.7103 67.204 51.0195 66.4716 51.0195 65.6252C51.0195 64.7789 50.7103 64.0465 50.0918 63.428C49.4733 62.8095 48.7409 62.5002 47.8945 62.5002Z" fill="#F8F0FC"/>
<path d="M29.1445 56.2502H60.3945C61.2409 56.2502 61.9733 55.941 62.5918 55.3225C63.2103 54.704 63.5195 53.9716 63.5195 53.1252C63.5195 52.2789 63.2103 51.5465 62.5918 50.928C61.9733 50.3095 61.2409 50.0002 60.3945 50.0002H29.1445C28.2982 50.0002 27.5658 50.3095 26.9473 50.928C26.3288 51.5465 26.0195 52.2789 26.0195 53.1252C26.0195 53.9716 26.3288 54.704 26.9473 55.3225C27.5658 55.941 28.2982 56.2502 29.1445 56.2502Z" fill="#F8F0FC"/>
<path d="M29.1445 43.7502H72.8945C73.7409 43.7502 74.4733 43.441 75.0918 42.8225C75.7103 42.204 76.0195 41.4716 76.0195 40.6252C76.0195 39.7789 75.7103 39.0465 75.0918 38.428C74.4733 37.8095 73.7409 37.5002 72.8945 37.5002H29.1445C28.2982 37.5002 27.5658 37.8095 26.9473 38.428C26.3288 39.0465 26.0195 39.7789 26.0195 40.6252C26.0195 41.4716 26.3288 42.204 26.9473 42.8225C27.5658 43.441 28.2982 43.7502 29.1445 43.7502Z" fill="#F8F0FC"/>
<path d="M29.1445 18.7502H72.8945C73.7409 18.7502 74.4733 18.441 75.0918 17.8225C75.7103 17.204 76.0195 16.4716 76.0195 15.6252C76.0195 14.7789 75.7103 14.0465 75.0918 13.428C74.4733 12.8095 73.7409 12.5002 72.8945 12.5002H29.1445C28.2982 12.5002 27.5658 12.8095 26.9473 13.428C26.3288 14.0465 26.0195 14.7789 26.0195 15.6252C26.0195 16.4716 26.3288 17.204 26.9473 17.8225C27.5658 18.441 28.2982 18.7502 29.1445 18.7502Z" fill="#F8F0FC"/>
<path d="M29.1445 31.2502H72.8945C73.7409 31.2502 74.4733 30.941 75.0918 30.3225C75.7103 29.704 76.0195 28.9716 76.0195 28.1252C76.0195 27.2789 75.7103 26.5465 75.0918 25.928C74.4733 25.3095 73.7409 25.0002 72.8945 25.0002H29.1445C28.2982 25.0002 27.5658 25.3095 26.9473 25.928C26.3288 26.5465 26.0195 27.2789 26.0195 28.1252C26.0195 28.9716 26.3288 29.704 26.9473 30.3225C27.5658 30.941 28.2982 31.2502 29.1445 31.2502Z" fill="#F8F0FC"/>
<path d="M76.6897 55.991C66.1259 55.991 57.5869 64.5299 57.5869 75.0938C57.5869 85.6576 66.1259 94.1966 76.6897 94.1966C87.2536 94.1966 95.7925 85.6576 95.7925 75.0938C95.7925 64.5299 87.2536 55.991 76.6897 55.991ZM84.9039 83.308C84.7272 83.4851 84.5173 83.6255 84.2862 83.7214C84.0551 83.8173 83.8074 83.8666 83.5572 83.8666C83.307 83.8666 83.0592 83.8173 82.8282 83.7214C82.5971 83.6255 82.3871 83.4851 82.2104 83.308L76.6897 77.7873L71.169 83.308C70.8118 83.6651 70.3274 83.8658 69.8223 83.8658C69.3171 83.8658 68.8327 83.6651 68.4755 83.308C68.1183 82.9508 67.9177 82.4663 67.9177 81.9612C67.9177 81.7111 67.9669 81.4634 68.0626 81.2324C68.1584 81.0013 68.2986 80.7913 68.4755 80.6145L73.9962 75.0938L68.4755 69.5731C68.1183 69.2159 67.9177 68.7314 67.9177 68.2263C67.9177 67.7212 68.1183 67.2367 68.4755 66.8796C68.8327 66.5224 69.3171 66.3217 69.8223 66.3217C70.3274 66.3217 70.8118 66.5224 71.169 66.8796L76.6897 72.4003L82.2104 66.8796C82.3873 66.7027 82.5972 66.5624 82.8283 66.4667C83.0594 66.371 83.3071 66.3217 83.5572 66.3217C83.8073 66.3217 84.0549 66.371 84.286 66.4667C84.5171 66.5624 84.7271 66.7027 84.9039 66.8796C85.0808 67.0564 85.2211 67.2664 85.3168 67.4975C85.4125 67.7285 85.4618 67.9762 85.4618 68.2263C85.4618 68.4764 85.4125 68.7241 85.3168 68.9552C85.2211 69.1862 85.0808 69.3962 84.9039 69.5731L79.3832 75.0938L84.9039 80.6145C85.6298 81.3404 85.6298 82.563 84.9039 83.308Z" fill="#DC4437"/>
</svg>
