<svg width="18" height="18" viewBox="0 0 18 18" fill="none" xmlns="http://www.w3.org/2000/svg">
<path d="M2.62742 7.9113H0V15.3726C0 15.8226 0.362903 16.1855 0.812903 16.1855H17.071C17.579 16.1855 18 15.7645 18 15.2565V5.16775C18 4.67421 17.6081 4.28227 17.1145 4.28227H12.9339C12.4984 4.28227 12.1355 3.96292 12.0776 3.54195L11.9324 2.58388C11.8598 2.16292 11.4969 1.81453 11.076 1.81453H6.89516C6.45968 1.81453 6.09677 2.1484 6.03871 2.58388L5.89355 3.54195C5.83548 3.96292 5.45806 4.28227 5.0371 4.28227H0.870968C0.391935 4.28227 0 4.67421 0 5.15324V5.87905H2.62742C3.17903 5.87905 3.62903 6.32905 3.62903 6.88066V6.89517C3.62903 7.4613 3.17903 7.9113 2.62742 7.9113ZM15.6774 5.90808C16.2435 5.90808 16.6935 6.35808 16.6935 6.92421C16.6935 7.49034 16.2435 7.94034 15.6774 7.94034C15.1113 7.94034 14.6613 7.49034 14.6613 6.92421C14.6613 6.37259 15.1113 5.90808 15.6774 5.90808ZM9.04355 6.27098C11.4534 6.27098 13.3984 8.21614 13.3984 10.6258C13.3984 13.0355 11.4534 14.9807 9.04355 14.9807C6.63387 14.9807 4.68871 13.0355 4.68871 10.6258C4.68871 8.21614 6.64839 6.27098 9.04355 6.27098Z" fill="black"/>
<path d="M9.0002 12.8033C10.2028 12.8033 11.1776 11.8284 11.1776 10.6259C11.1776 9.42331 10.2028 8.44845 9.0002 8.44845C7.79764 8.44845 6.82278 9.42331 6.82278 10.6259C6.82278 11.8284 7.79764 12.8033 9.0002 12.8033Z" fill="black"/>
</svg>
