<svg width="22" height="22" viewBox="0 0 22 22" fill="none" xmlns="http://www.w3.org/2000/svg">
    <path d="M18.622 14.1571C19.0366 13.1562 19.25 12.0834 19.25 11C19.25 8.81196 18.3808 6.71354 16.8336 5.16637C15.2865 3.61919 13.188 2.75 11 2.75C8.81196 2.75 6.71354 3.61919 5.16637 5.16637C3.61919 6.71354 2.75 8.81196 2.75 11C2.75 12.0834 2.96339 13.1562 3.37799 14.1571C3.7926 15.1581 4.40029 16.0675 5.16637 16.8336C5.93245 17.5997 6.84193 18.2074 7.84286 18.622C8.8438 19.0366 9.91659 19.25 11 19.25C12.0834 19.25 13.1562 19.0366 14.1571 18.622C15.1581 18.2074 16.0675 17.5997 16.8336 16.8336C17.5997 16.0675 18.2074 15.1581 18.622 14.1571Z" fill="#519E47"/>
    <path d="M8.25 11L10.0833 12.8333L13.75 9.16667M19.25 11C19.25 12.0834 19.0366 13.1562 18.622 14.1571C18.2074 15.1581 17.5997 16.0675 16.8336 16.8336C16.0675 17.5997 15.1581 18.2074 14.1571 18.622C13.1562 19.0366 12.0834 19.25 11 19.25C9.91659 19.25 8.8438 19.0366 7.84286 18.622C6.84193 18.2074 5.93245 17.5997 5.16637 16.8336C4.40029 16.0675 3.7926 15.1581 3.37799 14.1571C2.96339 13.1562 2.75 12.0834 2.75 11C2.75 8.81196 3.61919 6.71354 5.16637 5.16637C6.71354 3.61919 8.81196 2.75 11 2.75C13.188 2.75 15.2865 3.61919 16.8336 5.16637C18.3808 6.71354 19.25 8.81196 19.25 11Z" stroke="white" stroke-linecap="round" stroke-linejoin="round"/>
</svg>
