<svg width="22" height="19" viewBox="0 0 22 19" fill="none" xmlns="http://www.w3.org/2000/svg">
<path d="M12.2595 1.00007C7.16954 0.860072 2.99954 4.95007 2.99954 10.0001H1.20954C0.759542 10.0001 0.539542 10.5401 0.859542 10.8501L3.64954 13.6501C3.84954 13.8501 4.15954 13.8501 4.35954 13.6501L7.14954 10.8501C7.21864 10.7796 7.26533 10.6902 7.28373 10.5932C7.30212 10.4962 7.29139 10.396 7.25289 10.3051C7.21439 10.2142 7.14985 10.1367 7.06739 10.0824C6.98493 10.0281 6.88826 9.99949 6.78954 10.0001H4.99954C4.99954 6.10007 8.17954 2.95007 12.0995 3.00007C15.8195 3.05007 18.9495 6.18007 18.9995 9.90007C19.0495 13.8101 15.8995 17.0001 11.9995 17.0001C10.3895 17.0001 8.89954 16.4501 7.71954 15.5201C7.52801 15.3692 7.28769 15.294 7.04431 15.3087C6.80093 15.3235 6.57146 15.4272 6.39954 15.6001C5.97954 16.0201 6.00954 16.7301 6.47954 17.0901C8.05067 18.3325 9.99651 19.0058 11.9995 19.0001C17.0495 19.0001 21.1395 14.8301 20.9995 9.74007C20.8695 5.05007 16.9495 1.13007 12.2595 1.00007ZM11.7495 6.00007C11.3395 6.00007 10.9995 6.34007 10.9995 6.75007V10.4301C10.9995 10.7801 11.1895 11.1101 11.4895 11.2901L14.6095 13.1401C14.9695 13.3501 15.4295 13.2301 15.6395 12.8801C15.8495 12.5201 15.7295 12.0601 15.3795 11.8501L12.4995 10.1401V6.74007C12.4995 6.34007 12.1595 6.00007 11.7495 6.00007Z" fill="#B62985"/>
</svg>
