<svg width="25" height="25" viewBox="0 0 25 25" fill="none" xmlns="http://www.w3.org/2000/svg">
<path d="M5.17578 25H19.8242C21.0358 25 22.0215 24.0144 22.0215 22.8027V7.32422H16.8945C15.6829 7.32422 14.6973 6.33857 14.6973 5.12695V0H5.17578C3.96416 0 2.97852 0.985645 2.97852 2.19727V22.8027C2.97852 24.0144 3.96416 25 5.17578 25ZM8.10547 10.3027H16.8945C17.2994 10.3027 17.627 10.6303 17.627 11.0352C17.627 11.44 17.2994 11.7676 16.8945 11.7676H8.10547C7.70063 11.7676 7.37305 11.44 7.37305 11.0352C7.37305 10.6303 7.70063 10.3027 8.10547 10.3027ZM8.10547 13.2324H16.8945C17.2994 13.2324 17.627 13.56 17.627 13.9648C17.627 14.3697 17.2994 14.6973 16.8945 14.6973H8.10547C7.70063 14.6973 7.37305 14.3697 7.37305 13.9648C7.37305 13.56 7.70063 13.2324 8.10547 13.2324ZM8.10547 16.1621H16.8945C17.2994 16.1621 17.627 16.4897 17.627 16.8945C17.627 17.2994 17.2994 17.627 16.8945 17.627H8.10547C7.70063 17.627 7.37305 17.2994 7.37305 16.8945C7.37305 16.4897 7.70063 16.1621 8.10547 16.1621ZM8.10547 19.0918H13.9648C14.3697 19.0918 14.6973 19.4194 14.6973 19.8242C14.6973 20.2291 14.3697 20.5566 13.9648 20.5566H8.10547C7.70063 20.5566 7.37305 20.2291 7.37305 19.8242C7.37305 19.4194 7.70063 19.0918 8.10547 19.0918Z" fill="#7F91A8"/>
<path d="M16.8945 5.85943H21.5923L16.1621 0.429199V5.127C16.1621 5.53111 16.4904 5.85943 16.8945 5.85943Z" fill="#7F91A8"/>
</svg>
