<svg width="110" height="123" viewBox="0 0 110 123" fill="none" xmlns="http://www.w3.org/2000/svg">
    <mask id="mask0" mask-type="alpha" maskUnits="userSpaceOnUse" x="0" y="0" width="34" height="123">
        <path d="M0.703125 0.474121H33.0925V123H0.703125V0.474121Z" fill="white"/>
    </mask>
    <g mask="url(#mask0)">
        <path fill-rule="evenodd" clip-rule="evenodd" d="M30.4524 0.550119C32.2596 0.938979 33.4076 2.71223 33.0162 4.51046L7.24776 123L0.703125 121.59L26.4722 3.10109C26.863 1.30285 28.6451 0.16126 30.4524 0.550119Z" fill="#7F91A8"/>
    </g>
    <mask id="mask1" mask-type="alpha" maskUnits="userSpaceOnUse" x="14" y="4" width="82" height="80">
        <path d="M14.4707 59.853L76.1597 73.2209C80.8991 74.2408 84.1436 78.8079 83.2143 83.5348L95.2776 27.8318C96.2011 23.0914 92.9496 18.5243 88.2224 17.5044L26.502 4.14294L14.4707 59.853Z" fill="white"/>
    </mask>
    <g mask="url(#mask1)">
        <path fill-rule="evenodd" clip-rule="evenodd" d="M14.4707 59.853L76.1597 73.2209C80.8991 74.2408 84.1436 78.8079 83.2143 83.5348L95.2776 27.8318C96.2011 23.0914 92.9496 18.5243 88.2224 17.5044L26.502 4.14294L14.4707 59.853Z" fill="url(#paint0_linear)"/>
    </g>
    <mask id="mask2" mask-type="alpha" maskUnits="userSpaceOnUse" x="43" y="52" width="67" height="61">
        <path d="M89.1131 52.2012L82.4773 83.2749C82.4658 83.3267 82.4562 83.3778 82.4447 83.4302C81.4249 88.2072 76.773 91.242 72.0552 90.2082L53.7698 86.2016C49.256 85.2176 44.6207 87.9877 43.6616 92.5523C42.7135 97.0476 45.5407 101.471 49.9778 102.438C49.9778 102.438 97.885 112.906 97.885 112.873L109.873 56.7787C109.905 56.7464 89.1899 52.1559 89.1899 52.1559C89.1847 52.1546 89.1796 52.1539 89.1751 52.1539C89.147 52.1539 89.1214 52.1734 89.1131 52.2012Z" fill="white"/>
    </mask>
    <g mask="url(#mask2)">
        <path fill-rule="evenodd" clip-rule="evenodd" d="M89.1131 52.2012L82.4773 83.2749C82.4658 83.3267 82.4562 83.3778 82.4447 83.4302C81.4249 88.2072 76.773 91.242 72.0552 90.2082L53.7698 86.2016C49.256 85.2176 44.6207 87.9877 43.6616 92.5523C42.7135 97.0476 45.5407 101.471 49.9778 102.438C49.9778 102.438 97.885 112.906 97.885 112.873L109.873 56.7787C109.905 56.7464 89.1899 52.1559 89.1899 52.1559C89.1847 52.1546 89.1796 52.1539 89.1751 52.1539C89.147 52.1539 89.1214 52.1734 89.1131 52.2012Z" fill="url(#paint1_linear)"/>
    </g>
    <path fill-rule="evenodd" clip-rule="evenodd" d="M83.4535 83.417C82.5064 88.2079 77.8581 91.3237 73.0694 90.3767C73.0177 90.3664 72.9666 90.356 72.9149 90.3444L54.1153 86.2759C49.6189 85.3082 45.1878 88.164 44.2109 92.66L49.7062 67.24L76.3608 73.0032C81.1197 74.0452 84.3903 78.6505 83.4535 83.417Z" fill="#B82887"/>
    <defs>
        <linearGradient id="paint0_linear" x1="19.0251" y1="66.0855" x2="91.871" y2="19.051" gradientUnits="userSpaceOnUse">
            <stop stop-color="#9C36B5"/>
            <stop offset="1" stop-color="#DF52AF"/>
        </linearGradient>
        <linearGradient id="paint1_linear" x1="43.4784" y1="82.5138" x2="109.873" y2="82.5138" gradientUnits="userSpaceOnUse">
            <stop stop-color="#C6509E"/>
            <stop offset="1" stop-color="#DE2BA1"/>
        </linearGradient>
    </defs>
</svg>
