<svg width="31" height="31" viewBox="0 0 31 31" fill="none" xmlns="http://www.w3.org/2000/svg">
<g clip-path="url(#clip0)">
<path d="M16.4082 -0.0591278L14.6523 -0.0605469V5.45088H16.4082V-0.0591278Z" fill="#7F91A8"/>
<path d="M15.5 12.7161C16.0007 12.7161 16.4082 12.3088 16.4082 11.8081C16.4082 11.3074 16.0007 10.8999 15.5 10.8999C14.9991 10.8999 14.5918 11.3074 14.5918 11.8081C14.5918 12.3088 14.9991 12.7161 15.5 12.7161Z" fill="#7F91A8"/>
<path d="M22.1607 3.63477H18.2249V6.35938C18.2249 6.86078 17.8183 7.26758 17.3167 7.26758H13.7444C13.2428 7.26758 12.8362 6.86078 12.8362 6.35938V3.63477H8.83985C7.00357 3.63477 5.50977 3.63477 5.50977 6.96461V27.6095C5.50977 30.426 7.00357 30.9396 8.83985 30.9396H22.1607C23.9967 30.9396 25.4907 30.426 25.4907 27.6095V6.96461C25.4907 3.63477 23.9967 3.63477 22.1607 3.63477ZM10.959 17.317C10.959 15.7068 11.8133 14.1638 13.2399 13.328C12.0273 11.5307 13.3189 9.08352 15.5003 9.08352C17.6752 9.08352 18.9715 11.5201 17.7651 13.3206C19.1354 14.1115 20.0413 15.5791 20.0413 17.2569V19.0731C20.0413 19.5747 19.6347 19.9815 19.1331 19.9815H11.8674C11.3658 19.9815 10.959 19.5747 10.959 19.0731V17.317ZM13.6838 27.2464H10.0508C9.54939 27.2464 9.14259 26.8399 9.14259 26.3382C9.14259 25.8366 9.54939 25.43 10.0508 25.43H13.6838C14.1853 25.43 14.5921 25.8366 14.5921 26.3382C14.5921 26.8399 14.1853 27.2464 13.6838 27.2464ZM20.9495 27.2464H17.3167C16.815 27.2464 16.4085 26.8399 16.4085 26.3382C16.4085 25.8366 16.815 25.43 17.3167 25.43H20.9495C21.4511 25.43 21.8577 25.8366 21.8577 26.3382C21.8577 26.8399 21.4511 27.2464 20.9495 27.2464ZM20.9495 23.6139H10.0508C9.54939 23.6139 9.14259 23.2073 9.14259 22.7056C9.14259 22.2042 9.54939 21.7974 10.0508 21.7974H20.9495C21.4511 21.7974 21.8577 22.2042 21.8577 22.7056C21.8577 23.2073 21.4511 23.6139 20.9495 23.6139Z" fill="#7F91A8"/>
<path d="M18.2246 17.2569C18.2246 15.7844 17.0274 14.5626 15.5558 14.5332C14.0206 14.503 12.7754 15.7766 12.7754 17.317V18.1649H18.2246V17.2569Z" fill="#7F91A8"/>
</g>
<defs>
<clipPath id="clip0">
<rect width="31" height="31" fill="white"/>
</clipPath>
</defs>
</svg>
