<svg width="46" height="46" viewBox="0 0 46 46" fill="none" xmlns="http://www.w3.org/2000/svg">
<g clip-path="url(#clip0)">
<path d="M20.6058 41.2051C16.1153 41.2051 12.4605 37.5503 12.4605 33.0599V5.78613L3.20208 7.90571C0.913715 8.50754 -0.458393 10.8668 0.146949 13.1762L8.08518 42.8148C8.61226 44.7315 10.3735 46.0001 12.2633 46.0001C12.6177 46.0001 12.9781 45.9559 13.3346 45.8622L32.6529 41.2051H20.6058Z" fill="#B0BEC5"/>
<path d="M45.9983 5.27051V33.0597C45.9983 35.9728 43.6408 38.3303 40.7278 38.3303H20.6045C18.6306 38.3303 16.9058 37.2378 16.0049 35.6278C15.5831 34.8803 15.334 33.9988 15.334 33.0597V5.27051C15.334 2.35715 17.6915 0 20.6045 0H40.7278C43.6408 0 45.9983 2.35715 45.9983 5.27051Z" fill="#ECEFF1"/>
<path d="M28.7502 13.4153C28.7502 15.5324 27.0342 17.2484 24.9171 17.2484C22.8003 17.2484 21.084 15.5324 21.084 13.4153C21.084 11.2985 22.8003 9.58252 24.9171 9.58252C27.0342 9.58252 28.7502 11.2985 28.7502 13.4153Z" fill="#FFCB98"/>
<path d="M45.9992 22.8828V33.0595C45.9992 35.9726 43.6417 38.3301 40.7287 38.3301H20.6054C18.6315 38.3301 16.9067 37.2376 16.0059 35.6276L34.9985 16.6349C36.3015 15.332 38.4481 15.332 39.7514 16.6349L45.9992 22.8828Z" fill="#B82887"/>
<path d="M40.3636 38.3304H20.6045C18.6306 38.3304 16.9058 37.238 16.0049 35.628C15.5831 34.8805 15.334 33.999 15.334 33.0599V28.6327L20.6238 23.3432C21.9268 22.0399 24.0734 22.0399 25.3767 23.3432L40.3636 38.3304Z" fill="#CE75B0"/>
</g>
<defs>
<clipPath id="clip0">
<rect width="46" height="46" fill="white"/>
</clipPath>
</defs>
</svg>
