<svg width="59" height="57" viewBox="0 0 59 57" fill="none" xmlns="http://www.w3.org/2000/svg">
<circle cx="22.7961" cy="33.9442" r="22.7961" fill="#E0F5E3"/>
<path d="M26.0859 46.5355H15.5022C13.7257 46.5355 12.2892 45.088 12.3028 43.3116L12.4491 24.1136C12.4626 22.356 13.8911 20.9382 15.6487 20.9382H26.0859M26.0859 46.5355H48.1063C49.6059 46.5355 50.9044 45.4942 51.2297 44.0303L57.0903 21.1404C57.5343 19.1422 56.0138 17.2463 53.9669 17.2463H45.0377C43.0216 17.2463 41.4381 15.8965 41.8289 13.9186L43.4802 5.56014C43.871 3.58223 42.3573 1.74023 40.3414 1.74023H39.7124C38.5744 1.74023 37.5222 2.34486 36.9487 3.32757L26.0859 20.9382M26.0859 46.5355V20.9382" stroke="#519E47" stroke-width="3.44579"/>
</svg>
