<svg width="49" height="49" viewBox="0 0 49 49" fill="none" xmlns="http://www.w3.org/2000/svg">
<path d="M31.6006 11.2256V0H6.17578V49L9.22995 48.2287L12.2841 49L15.3383 48.2287L18.3925 49L21.4466 48.2287L24.5009 49L27.5551 48.2287L30.6093 49L33.6634 48.2287L36.7177 49L39.7719 48.2287L42.8261 49V11.2256H31.6006ZM29.7454 42.5252H10.8032V39.6541H29.7454V42.5252ZM29.7454 36.3552H10.8032V33.4841H29.7454V36.3552ZM29.7454 30.1851H10.8032V27.3141H29.7454V30.1851ZM24.5009 22.692C20.7608 22.692 17.7181 19.6492 17.7181 15.9091C17.7181 12.169 20.7608 9.12625 24.5009 9.12625C28.241 9.12625 31.2838 12.169 31.2838 15.9091C31.2838 19.6492 28.241 22.692 24.5009 22.692ZM35.8084 42.5252H32.9373V39.6541H35.8084V42.5252ZM35.8084 36.3552H32.9373V33.4841H35.8084V36.3552ZM35.8084 30.1852H32.9373V27.3141H35.8084V30.1852Z" fill="#7F91A8"/>
<path d="M24.5016 19.8206C26.662 19.8206 28.4134 18.0692 28.4134 15.9088C28.4134 13.7484 26.662 11.9971 24.5016 11.9971C22.3412 11.9971 20.5898 13.7484 20.5898 15.9088C20.5898 18.0692 22.3412 19.8206 24.5016 19.8206Z" fill="#7F91A8"/>
<path d="M34.4727 1.43555V8.3545H41.3916L34.4727 1.43555Z" fill="#7F91A8"/>
</svg>
