<svg width="25" height="25" viewBox="0 0 25 25" fill="none" xmlns="http://www.w3.org/2000/svg">
<g clip-path="url(#clip0)">
<path d="M22.6238 20.5077C22.7084 20.3973 22.788 20.2432 22.7854 20.0445V3.75522C22.7854 3.35073 22.4575 3.0228 22.053 3.0228H19.6992V0.732422C19.6992 0.32793 19.3712 0 18.9667 0H2.94531C2.54082 0 2.21289 0.32793 2.21289 0.732422V21.2448C2.21289 21.6493 2.54082 21.9772 2.94531 21.9772H5.29912V24.2676C5.29912 24.6721 5.62705 25 6.03154 25H17.631C17.7783 24.9995 17.9937 24.9429 18.1372 24.7975L22.5585 20.5793C22.5792 20.5575 22.5793 20.5603 22.6238 20.5077ZM3.67773 20.5124V1.46484H18.2344V3.0228H6.03149C5.627 3.0228 5.29907 3.35073 5.29907 3.75522V20.5124H3.67773V20.5124ZM6.76392 4.48765H21.3206V19.317H17.6316C17.2272 19.317 16.8992 19.6449 16.8992 20.0494V23.5352H6.76392V4.48765ZM18.3641 22.5565V20.7818H20.2243L18.3641 22.5565Z" fill="#B82887"/>
<path d="M9.03711 10.3311H19.143C19.5475 10.3311 19.8754 10.0031 19.8754 9.59863C19.8754 9.19414 19.5475 8.86621 19.143 8.86621H9.03711C8.63262 8.86621 8.30469 9.19414 8.30469 9.59863C8.30469 10.0031 8.63262 10.3311 9.03711 10.3311Z" fill="#B82887"/>
<path d="M9.03711 13.2676H19.143C19.5475 13.2676 19.8754 12.9397 19.8754 12.5352C19.8754 12.1307 19.5475 11.8027 19.143 11.8027H9.03711C8.63262 11.8027 8.30469 12.1307 8.30469 12.5352C8.30469 12.9397 8.63262 13.2676 9.03711 13.2676Z" fill="#B82887"/>
<path d="M9.03711 16.2041H19.143C19.5475 16.2041 19.8754 15.8762 19.8754 15.4717C19.8754 15.0672 19.5475 14.7393 19.143 14.7393H9.03711C8.63262 14.7393 8.30469 15.0672 8.30469 15.4717C8.30469 15.8762 8.63262 16.2041 9.03711 16.2041Z" fill="#B82887"/>
<path d="M15.0439 17.6758H9.03711C8.63262 17.6758 8.30469 18.0037 8.30469 18.4082C8.30469 18.8127 8.63262 19.1406 9.03711 19.1406H15.0439C15.4484 19.1406 15.7763 18.8127 15.7763 18.4082C15.7763 18.0037 15.4484 17.6758 15.0439 17.6758Z" fill="#B82887"/>
</g>
<defs>
<clipPath id="clip0">
<rect width="25" height="25" fill="white"/>
</clipPath>
</defs>
</svg>
