<svg width="21" height="25" viewBox="0 0 21 25" fill="#4B4B4B" xmlns="http://www.w3.org/2000/svg">
<path d="M10.5003 24.3601C11.9212 24.3601 13.0837 23.2409 13.0837 21.8729H7.91699C7.91699 23.2409 9.07949 24.3601 10.5003 24.3601ZM18.2503 16.8984V10.6802C18.2503 6.86228 16.1449 3.66615 12.4378 2.82049V1.97482C12.4378 0.942606 11.5724 0.109375 10.5003 0.109375C9.42824 0.109375 8.56282 0.942606 8.56282 1.97482V2.82049C4.86866 3.66615 2.75033 6.84984 2.75033 10.6802V16.8984L0.166992 19.3856V20.6292H20.8337V19.3856L18.2503 16.8984ZM15.667 18.142H5.33366V10.6802C5.33366 7.59602 7.28407 5.08389 10.5003 5.08389C13.7166 5.08389 15.667 7.59602 15.667 10.6802V18.142Z" />
</svg>
