<svg width="28" height="28" viewBox="0 0 28 28" fill="none" xmlns="http://www.w3.org/2000/svg">
<path d="M18.0577 6.41462V0H3.5293V28L5.27454 27.5593L7.01978 28L8.76502 27.5593L10.5103 28L12.2555 27.5593L14.0008 28L15.746 27.5593L17.4913 28L19.2365 27.5593L20.9818 28L22.7271 27.5593L24.4723 28V6.41462H18.0577ZM16.9977 24.3001H6.17355V22.6595H16.9977V24.3001ZM16.9977 20.7744H6.17355V19.1338H16.9977V20.7744ZM16.9977 17.2487H6.17355V15.608H16.9977V17.2487ZM14.0008 12.9668C11.8636 12.9668 10.1249 11.2281 10.1249 9.09092C10.1249 6.95373 11.8636 5.215 14.0008 5.215C16.138 5.215 17.8767 6.95373 17.8767 9.09092C17.8767 11.2281 16.138 12.9668 14.0008 12.9668ZM20.4622 24.3001H18.8216V22.6595H20.4622V24.3001ZM20.4622 20.7744H18.8216V19.1338H20.4622V20.7744ZM20.4622 17.2487H18.8216V15.6081H20.4622V17.2487Z" fill="#7F91A8"/>
<path d="M14.0009 11.3263C15.2354 11.3263 16.2362 10.3255 16.2362 9.09101C16.2362 7.85649 15.2354 6.85571 14.0009 6.85571C12.7664 6.85571 11.7656 7.85649 11.7656 9.09101C11.7656 10.3255 12.7664 11.3263 14.0009 11.3263Z" fill="#7F91A8"/>
<path d="M19.6992 0.820312V4.774H23.6529L19.6992 0.820312Z" fill="#7F91A8"/>
</svg>
